<?xml version="1.0" encoding="UTF-8" standalone="no"?>
<!-- Created with Inkscape (http://www.inkscape.org/) -->

<svg
   width="131.94141mm"
   height="19.583645mm"
   viewBox="0 0 131.94141 19.583645"
   version="1.1"
   id="svg1"
   inkscape:version="1.3.2 (091e20e, 2023-11-25, custom)"
   sodipodi:docname="SociableOS-logo.svg"
   xmlns:inkscape="http://www.inkscape.org/namespaces/inkscape"
   xmlns:sodipodi="http://sodipodi.sourceforge.net/DTD/sodipodi-0.dtd"
   xmlns="http://www.w3.org/2000/svg"
   xmlns:svg="http://www.w3.org/2000/svg">
  <sodipodi:namedview
     id="namedview1"
     pagecolor="#ffffff"
     bordercolor="#000000"
     borderopacity="0.25"
     inkscape:showpageshadow="2"
     inkscape:pageopacity="0.0"
     inkscape:pagecheckerboard="0"
     inkscape:deskcolor="#d1d1d1"
     inkscape:document-units="mm"
     inkscape:zoom="0.72426347"
     inkscape:cx="249.2187"
     inkscape:cy="36.588895"
     inkscape:window-width="1920"
     inkscape:window-height="1009"
     inkscape:window-x="1912"
     inkscape:window-y="-8"
     inkscape:window-maximized="1"
     inkscape:current-layer="layer1" />
  <defs
     id="defs1">
    <clipPath
       clipPathUnits="userSpaceOnUse"
       id="clipPath2">
      <path
         d="M 0,600 H 800 V 0 H 0 Z"
         transform="translate(-227.25051,-147.40041)"
         id="path2" />
    </clipPath>
    <clipPath
       clipPathUnits="userSpaceOnUse"
       id="clipPath4">
      <path
         d="M 0,600 H 800 V 0 H 0 Z"
         transform="translate(-241.35991,-147.40041)"
         id="path4" />
    </clipPath>
    <clipPath
       clipPathUnits="userSpaceOnUse"
       id="clipPath6">
      <path
         d="M 0,600 H 800 V 0 H 0 Z"
         id="path6" />
    </clipPath>
    <clipPath
       clipPathUnits="userSpaceOnUse"
       id="clipPath8">
      <path
         d="M 0,600 H 800 V 0 H 0 Z"
         transform="translate(-318.61671,-138.32811)"
         id="path8" />
    </clipPath>
    <clipPath
       clipPathUnits="userSpaceOnUse"
       id="clipPath10">
      <path
         d="M 0,600 H 800 V 0 H 0 Z"
         transform="translate(-353.89701,-137.248)"
         id="path10" />
    </clipPath>
    <clipPath
       clipPathUnits="userSpaceOnUse"
       id="clipPath12">
      <path
         d="M 0,600 H 800 V 0 H 0 Z"
         id="path12" />
    </clipPath>
    <clipPath
       clipPathUnits="userSpaceOnUse"
       id="clipPath14">
      <path
         d="M 0,600 H 800 V 0 H 0 Z"
         transform="translate(-413.00781,-158.12991)"
         id="path14" />
    </clipPath>
    <clipPath
       clipPathUnits="userSpaceOnUse"
       id="clipPath26">
      <path
         d="M 0,600 H 800 V 0 H 0 Z"
         transform="translate(-194.19921,-149.1973)"
         id="path26" />
    </clipPath>
    <clipPath
       clipPathUnits="userSpaceOnUse"
       id="clipPath28">
      <path
         d="M 0,600 H 800 V 0 H 0 Z"
         transform="translate(-157.7368,-138.46191)"
         id="path28" />
    </clipPath>
    <rect
       x="1376.5709"
       y="553.66589"
       width="241.62477"
       height="109.07633"
       id="rect2" />
    <clipPath
       clipPathUnits="userSpaceOnUse"
       id="clipPath1">
      <path
         d="M 0,600 H 800 V 0 H 0 Z"
         transform="translate(-227.25051,-147.40041)"
         id="path1" />
    </clipPath>
    <clipPath
       clipPathUnits="userSpaceOnUse"
       id="clipPath3">
      <path
         d="M 0,600 H 800 V 0 H 0 Z"
         transform="translate(-241.35991,-147.40041)"
         id="path3" />
    </clipPath>
    <clipPath
       clipPathUnits="userSpaceOnUse"
       id="clipPath5">
      <path
         d="M 0,600 H 800 V 0 H 0 Z"
         id="path5" />
    </clipPath>
    <clipPath
       clipPathUnits="userSpaceOnUse"
       id="clipPath7">
      <path
         d="M 0,600 H 800 V 0 H 0 Z"
         transform="translate(-318.61671,-138.32811)"
         id="path7" />
    </clipPath>
    <clipPath
       clipPathUnits="userSpaceOnUse"
       id="clipPath9">
      <path
         d="M 0,600 H 800 V 0 H 0 Z"
         transform="translate(-353.89701,-137.248)"
         id="path9" />
    </clipPath>
    <clipPath
       clipPathUnits="userSpaceOnUse"
       id="clipPath11">
      <path
         d="M 0,600 H 800 V 0 H 0 Z"
         id="path11" />
    </clipPath>
    <clipPath
       clipPathUnits="userSpaceOnUse"
       id="clipPath13">
      <path
         d="M 0,600 H 800 V 0 H 0 Z"
         transform="translate(-413.00781,-158.12991)"
         id="path13" />
    </clipPath>
    <clipPath
       clipPathUnits="userSpaceOnUse"
       id="clipPath15">
      <path
         d="M 0,600 H 800 V 0 H 0 Z"
         transform="translate(-194.19921,-149.1973)"
         id="path15" />
    </clipPath>
    <clipPath
       clipPathUnits="userSpaceOnUse"
       id="clipPath16">
      <path
         d="M 0,600 H 800 V 0 H 0 Z"
         transform="translate(-157.7368,-138.46191)"
         id="path16" />
    </clipPath>
    <rect
       x="1376.5709"
       y="553.66589"
       width="241.62477"
       height="109.07633"
       id="rect98" />
  </defs>
  <g
     inkscape:label="Layer 1"
     inkscape:groupmode="layer"
     id="layer1"
     transform="translate(-39.158333,-138.64167)">
    <path
       id="path17"
       d="m 0,0 c 0,5.401 -3.168,10.082 -8.929,10.082 -5.689,0 -8.857,-4.681 -8.857,-10.082 0,-5.472 3.168,-10.152 8.857,-10.152 C -3.168,-10.152 0,-5.472 0,0 m -27.291,0 c 0,9.865 6.913,18.219 18.362,18.219 C 2.592,18.219 9.505,9.865 9.505,0 c 0,-9.864 -6.913,-18.289 -18.434,-18.289 -11.449,0 -18.362,8.425 -18.362,18.289"
       style="fill:#000000 icc-color(sRGB-IEC61966-2, 0.1, 0, 0, 0);fill-opacity:1;fill-rule:nonzero;stroke:none"
       transform="matrix(0.35277776,0,0,-0.35277776,67.290702,149.92053)"
       clip-path="url(#clipPath2)" />
    <path
       id="path18"
       d="m 0,0 c 0,10.658 7.777,18.219 18.434,18.219 7.128,0 11.449,-3.097 13.753,-6.266 L 26.21,6.338 c -1.656,2.447 -4.176,3.744 -7.344,3.744 -5.545,0 -9.433,-4.033 -9.433,-10.082 0,-6.048 3.888,-10.152 9.433,-10.152 3.168,0 5.688,1.44 7.344,3.816 l 5.977,-5.616 C 29.883,-15.121 25.562,-18.289 18.434,-18.289 7.777,-18.289 0,-10.729 0,0"
       style="fill:#000000 icc-color(sRGB-IEC61966-2, 0.1, 0, 0, 0);fill-opacity:1;fill-rule:nonzero;stroke:none"
       transform="matrix(0.35277776,0,0,-0.35277776,72.268184,149.92053)"
       clip-path="url(#clipPath4)" />
    <path
       id="path19"
       d="m 279.52,164.754 h 9.145 v -34.778 h -9.145 z m -0.864,9.217 c 0,3.025 2.448,5.401 5.4,5.401 3.025,0 5.473,-2.376 5.473,-5.401 0,-3.024 -2.448,-5.472 -5.473,-5.472 -2.952,0 -5.4,2.448 -5.4,5.472"
       style="fill:#000000 icc-color(sRGB-IEC61966-2, 0.1, 0, 0, 0);fill-opacity:1;fill-rule:nonzero;stroke:none"
       transform="matrix(0.35277776,0,0,-0.35277776,-12.878224,201.92012)"
       clip-path="url(#clipPath6)" />
    <path
       id="path20"
       d="m 0,0 v 4.32 c -1.512,2.017 -4.392,3.097 -7.344,3.097 -3.601,0 -6.553,-1.944 -6.553,-5.257 0,-3.312 2.952,-5.183 6.553,-5.183 2.952,0 5.832,1.007 7.344,3.023 m 0,-8.353 v 3.673 c -2.376,-2.881 -6.48,-4.537 -11.017,-4.537 -5.544,0 -12.025,3.744 -12.025,11.522 0,8.209 6.481,11.232 12.025,11.232 4.681,0 8.713,-1.512 11.017,-4.248 v 4.393 c 0,3.527 -3.024,5.832 -7.632,5.832 -3.673,0 -7.129,-1.44 -10.009,-4.104 l -3.601,6.408 c 4.249,3.817 9.721,5.473 15.194,5.473 7.992,0 15.265,-3.169 15.265,-13.178 V -8.353 Z"
       style="fill:#000000 icc-color(sRGB-IEC61966-2, 0.1, 0, 0, 0);fill-opacity:1;fill-rule:nonzero;stroke:none"
       transform="matrix(0.35277776,0,0,-0.35277776,99.522667,153.12104)"
       clip-path="url(#clipPath8)" />
    <path
       id="path21"
       d="m 0,0 c 5.256,0 8.785,4.104 8.785,10.152 0,5.977 -3.529,10.082 -8.785,10.082 -3.024,0 -6.337,-1.728 -7.921,-4.033 V 3.889 C -6.337,1.656 -3.024,0 0,0 m -17.065,-7.272 v 48.028 h 9.144 V 23.042 c 2.736,3.601 6.625,5.329 10.729,5.329 8.857,0 15.409,-6.913 15.409,-18.219 0,-11.664 -6.624,-18.289 -15.409,-18.289 -4.176,0 -7.993,1.873 -10.729,5.328 v -4.463 z"
       style="fill:#000000 icc-color(sRGB-IEC61966-2, 0.1, 0, 0, 0);fill-opacity:1;fill-rule:nonzero;stroke:none"
       transform="matrix(0.35277776,0,0,-0.35277776,111.96877,153.50208)"
       clip-path="url(#clipPath10)" />
    <path
       id="path22"
       d="m 379.023,178.004 h 9.145 v -48.028 h -9.145 z"
       style="fill:#000000 icc-color(sRGB-IEC61966-2, 0.1, 0, 0, 0);fill-opacity:1;fill-rule:nonzero;stroke:none"
       transform="matrix(0.35277776,0,0,-0.35277776,-12.878224,201.92012)"
       clip-path="url(#clipPath12)" />
    <path
       id="path23"
       d="M 0,0 C -5.688,0 -8.137,-3.96 -8.497,-7.417 H 8.641 C 8.353,-4.104 6.049,0 0,0 m -18.001,-10.729 c 0,10.082 7.488,18.218 18.001,18.218 10.441,0 17.426,-7.777 17.426,-19.082 v -2.16 H -8.425 c 0.649,-4.248 4.105,-7.777 10.009,-7.777 2.952,0 6.984,1.224 9.217,3.384 l 4.104,-6.048 c -3.456,-3.168 -8.928,-4.825 -14.329,-4.825 -10.585,0 -18.577,7.129 -18.577,18.29"
       style="fill:#000000 icc-color(sRGB-IEC61966-2, 0.1, 0, 0, 0);fill-opacity:1;fill-rule:nonzero;stroke:none"
       transform="matrix(0.35277776,0,0,-0.35277776,132.82175,146.13541)"
       clip-path="url(#clipPath14)" />
    <path
       id="path25"
       d="m 0,0 c 0,-12.894 -10.453,-23.347 -23.347,-23.347 -3.164,0 -6.181,0.629 -8.934,1.77 -3.482,-0.854 -10.807,-3.761 -10.807,-3.761 0,0 1.351,8.315 1.351,10.953 -3.106,3.964 -4.957,8.958 -4.957,14.385 0,12.894 10.453,23.347 23.347,23.347 C -10.453,23.347 0,12.894 0,0"
       style="fill:#51b70f icc-color(sRGB-IEC61966-2, 0.1, 0.31799316, 0.71798706, 0.05899048);fill-opacity:1;fill-rule:nonzero;stroke:none"
       transform="matrix(0.35277776,0,0,-0.35277776,55.630938,149.28663)"
       clip-path="url(#clipPath26)" />
    <path
       id="path27"
       d="m 0,0 3.393,5.674 c 2.22,-2.097 6.6,-4.131 10.3,-4.131 3.392,0 4.996,1.296 4.996,3.145 0,4.875 -17.641,0.865 -17.641,12.583 0,4.998 4.318,9.376 12.213,9.376 4.996,0 9.006,-1.728 11.967,-4.071 l -3.145,-5.553 c -1.79,1.851 -5.183,3.456 -8.822,3.456 -2.837,0 -4.687,-1.234 -4.687,-2.899 0,-4.381 17.703,-0.679 17.703,-12.707 0,-5.489 -4.688,-9.499 -12.955,-9.499 C 8.143,-4.626 3.145,-2.899 0,0"
       style="fill:#ffffff icc-color(sRGB-IEC61966-2, 0.1, 1, 1, 1);fill-opacity:1;fill-rule:nonzero;stroke:none"
       transform="matrix(0.35277776,0,0,-0.35277776,42.767812,153.07384)"
       clip-path="url(#clipPath28)" />
    <text
       xml:space="preserve"
       transform="matrix(0.28910637,0,0,0.28910637,-257.93553,-26.358524)"
       id="text2"
       style="font-size:85.3333px;white-space:pre;shape-inside:url(#rect2);display:inline;fill:#51b70f;fill-opacity:1"><tspan
         x="1376.5703"
         y="631.51817"
         id="tspan6"><tspan
           style="font-weight:bold;font-family:Dubai;-inkscape-font-specification:Dubai"
           id="tspan2">OS</tspan></tspan></text>
    <path
       id="path24"
       d="m 0,0 c 0,5.401 -3.168,10.082 -8.929,10.082 -5.689,0 -8.857,-4.681 -8.857,-10.082 0,-5.472 3.168,-10.152 8.857,-10.152 C -3.168,-10.152 0,-5.472 0,0 m -27.291,0 c 0,9.865 6.913,18.219 18.362,18.219 C 2.592,18.219 9.505,9.865 9.505,0 c 0,-9.864 -6.913,-18.289 -18.434,-18.289 -11.449,0 -18.362,8.425 -18.362,18.289"
       style="fill:#000000 icc-color(sRGB-IEC61966-2, 0.1, 0, 0, 0);fill-opacity:1;fill-rule:nonzero;stroke:none"
       transform="matrix(0.35277776,0,0,-0.35277776,67.290702,149.92053)"
       clip-path="url(#clipPath2)" />
    <path
       id="path29"
       d="m 0,0 c 0,10.658 7.777,18.219 18.434,18.219 7.128,0 11.449,-3.097 13.753,-6.266 L 26.21,6.338 c -1.656,2.447 -4.176,3.744 -7.344,3.744 -5.545,0 -9.433,-4.033 -9.433,-10.082 0,-6.048 3.888,-10.152 9.433,-10.152 3.168,0 5.688,1.44 7.344,3.816 l 5.977,-5.616 C 29.883,-15.121 25.562,-18.289 18.434,-18.289 7.777,-18.289 0,-10.729 0,0"
       style="fill:#000000 icc-color(sRGB-IEC61966-2, 0.1, 0, 0, 0);fill-opacity:1;fill-rule:nonzero;stroke:none"
       transform="matrix(0.35277776,0,0,-0.35277776,72.268184,149.92053)"
       clip-path="url(#clipPath4)" />
    <path
       id="path30"
       d="m 279.52,164.754 h 9.145 v -34.778 h -9.145 z m -0.864,9.217 c 0,3.025 2.448,5.401 5.4,5.401 3.025,0 5.473,-2.376 5.473,-5.401 0,-3.024 -2.448,-5.472 -5.473,-5.472 -2.952,0 -5.4,2.448 -5.4,5.472"
       style="fill:#000000 icc-color(sRGB-IEC61966-2, 0.1, 0, 0, 0);fill-opacity:1;fill-rule:nonzero;stroke:none"
       transform="matrix(0.35277776,0,0,-0.35277776,-12.878224,201.92012)"
       clip-path="url(#clipPath6)" />
    <path
       id="path31"
       d="m 0,0 v 4.32 c -1.512,2.017 -4.392,3.097 -7.344,3.097 -3.601,0 -6.553,-1.944 -6.553,-5.257 0,-3.312 2.952,-5.183 6.553,-5.183 2.952,0 5.832,1.007 7.344,3.023 m 0,-8.353 v 3.673 c -2.376,-2.881 -6.48,-4.537 -11.017,-4.537 -5.544,0 -12.025,3.744 -12.025,11.522 0,8.209 6.481,11.232 12.025,11.232 4.681,0 8.713,-1.512 11.017,-4.248 v 4.393 c 0,3.527 -3.024,5.832 -7.632,5.832 -3.673,0 -7.129,-1.44 -10.009,-4.104 l -3.601,6.408 c 4.249,3.817 9.721,5.473 15.194,5.473 7.992,0 15.265,-3.169 15.265,-13.178 V -8.353 Z"
       style="fill:#000000 icc-color(sRGB-IEC61966-2, 0.1, 0, 0, 0);fill-opacity:1;fill-rule:nonzero;stroke:none"
       transform="matrix(0.35277776,0,0,-0.35277776,99.522667,153.12104)"
       clip-path="url(#clipPath8)" />
    <path
       id="path32"
       d="m 0,0 c 5.256,0 8.785,4.104 8.785,10.152 0,5.977 -3.529,10.082 -8.785,10.082 -3.024,0 -6.337,-1.728 -7.921,-4.033 V 3.889 C -6.337,1.656 -3.024,0 0,0 m -17.065,-7.272 v 48.028 h 9.144 V 23.042 c 2.736,3.601 6.625,5.329 10.729,5.329 8.857,0 15.409,-6.913 15.409,-18.219 0,-11.664 -6.624,-18.289 -15.409,-18.289 -4.176,0 -7.993,1.873 -10.729,5.328 v -4.463 z"
       style="fill:#000000 icc-color(sRGB-IEC61966-2, 0.1, 0, 0, 0);fill-opacity:1;fill-rule:nonzero;stroke:none"
       transform="matrix(0.35277776,0,0,-0.35277776,111.96877,153.50208)"
       clip-path="url(#clipPath10)" />
    <path
       id="path95"
       d="m 379.023,178.004 h 9.145 v -48.028 h -9.145 z"
       style="fill:#000000 icc-color(sRGB-IEC61966-2, 0.1, 0, 0, 0);fill-opacity:1;fill-rule:nonzero;stroke:none"
       transform="matrix(0.35277776,0,0,-0.35277776,-12.878224,201.92012)"
       clip-path="url(#clipPath12)" />
    <path
       id="path96"
       d="M 0,0 C -5.688,0 -8.137,-3.96 -8.497,-7.417 H 8.641 C 8.353,-4.104 6.049,0 0,0 m -18.001,-10.729 c 0,10.082 7.488,18.218 18.001,18.218 10.441,0 17.426,-7.777 17.426,-19.082 v -2.16 H -8.425 c 0.649,-4.248 4.105,-7.777 10.009,-7.777 2.952,0 6.984,1.224 9.217,3.384 l 4.104,-6.048 c -3.456,-3.168 -8.928,-4.825 -14.329,-4.825 -10.585,0 -18.577,7.129 -18.577,18.29"
       style="fill:#000000 icc-color(sRGB-IEC61966-2, 0.1, 0, 0, 0);fill-opacity:1;fill-rule:nonzero;stroke:none"
       transform="matrix(0.35277776,0,0,-0.35277776,132.82175,146.13541)"
       clip-path="url(#clipPath14)" />
    <path
       id="path97"
       d="m 0,0 c 0,-12.894 -10.453,-23.347 -23.347,-23.347 -3.164,0 -6.181,0.629 -8.934,1.77 -3.482,-0.854 -10.807,-3.761 -10.807,-3.761 0,0 1.351,8.315 1.351,10.953 -3.106,3.964 -4.957,8.958 -4.957,14.385 0,12.894 10.453,23.347 23.347,23.347 C -10.453,23.347 0,12.894 0,0"
       style="fill:#51b70f icc-color(sRGB-IEC61966-2, 0.1, 0.31799316, 0.71798706, 0.05899048);fill-opacity:1;fill-rule:nonzero;stroke:none"
       transform="matrix(0.35277776,0,0,-0.35277776,55.630938,149.28663)"
       clip-path="url(#clipPath26)" />
    <path
       id="path98"
       d="m 0,0 3.393,5.674 c 2.22,-2.097 6.6,-4.131 10.3,-4.131 3.392,0 4.996,1.296 4.996,3.145 0,4.875 -17.641,0.865 -17.641,12.583 0,4.998 4.318,9.376 12.213,9.376 4.996,0 9.006,-1.728 11.967,-4.071 l -3.145,-5.553 c -1.79,1.851 -5.183,3.456 -8.822,3.456 -2.837,0 -4.687,-1.234 -4.687,-2.899 0,-4.381 17.703,-0.679 17.703,-12.707 0,-5.489 -4.688,-9.499 -12.955,-9.499 C 8.143,-4.626 3.145,-2.899 0,0"
       style="fill:#ffffff icc-color(sRGB-IEC61966-2, 0.1, 1, 1, 1);fill-opacity:1;fill-rule:nonzero;stroke:none"
       transform="matrix(0.35277776,0,0,-0.35277776,42.767812,153.07384)"
       clip-path="url(#clipPath28)" />
    <text
       xml:space="preserve"
       transform="matrix(0.28910637,0,0,0.28910637,-257.93553,-26.358524)"
       id="text98"
       style="font-size:85.3333px;white-space:pre;shape-inside:url(#rect98);display:inline;fill:#51b70f;fill-opacity:1"><tspan
         x="1376.5703"
         y="631.51817"
         id="tspan8"><tspan
           style="font-weight:bold;font-family:Dubai;-inkscape-font-specification:Dubai"
           id="tspan7">OS</tspan></tspan></text>
  </g>
</svg>
